<svg xmlns="http://www.w3.org/2000/svg" version="1.0" viewBox="37.5 112.5 299.91 150"><defs><clipPath id="a"><path d="M37.5 186h38.25v76.5H37.5Zm0 0"/></clipPath><clipPath id="b"><path d="M37.5 112.5h38.25V189H37.5Zm0 0"/></clipPath><clipPath id="c"><path d="M299.156 112.5h38.25V189h-38.25Zm0 0"/></clipPath><clipPath id="d"><path d="M299.156 186h38.25v76.5h-38.25Zm0 0"/></clipPath></defs><g clip-path="url(#a)"><path fill="#057a7a" d="M38.059 187.492c.484-1.066.148-.297.265-.535h.078l.11-.004.21-.008.434-.015.867.011c.582.012 1.176.04 1.743.133.57.086 1.144.192 1.73.301.606.09 1.133.305 1.707.469 2.317.66 4.442 1.832 6.527 3.199 4.047 2.855 7.387 7.012 9.493 11.855.984 2.442 1.82 5.024 2.129 7.707.242 1.336.293 2.692.324 4.055.039.684-.04 1.36-.063 2.043-.047.68-.066 1.371-.148 2.05a35.74 35.74 0 0 1-.317 2.028l-.191 1.012-.152.746-.61 2.938-.691 2.914-.754 2.894-.203.719-.094.34-.055.219c-.062.289-.164.578-.214.87-.149.575-.235 1.16-.336 1.743a15.62 15.62 0 0 0-.203 1.77c-.032.593-.016 1.187-.032 1.8 0 1.223.184 2.45.395 3.734.058.317.12.641.21.954l.122.48c.055.156.097.316.14.48.075.333.176.657.29.981.093.332.222.648.351.973.984 2.62 2.52 5.265 4.738 7.793 1.11 1.273 2.414 2.476 3.914 3.652 1.504 1.164 3.211 2.246 5.16 3.355l.258.145a.545.545 0 0 1-.258 1.023A26.244 26.244 0 0 1 63 259.766c-3.707-1.817-6.969-4.543-9.465-7.86-2.512-3.304-4.176-7.246-4.875-11.351a26.007 26.007 0 0 1-.305-6.23 26.86 26.86 0 0 1 .399-3.098c.195-1.024.457-2.051.71-2.993l1.587-5.773.797-2.883.195-.723.16-.699.317-1.398c.71-3.766.496-7.664-.399-11.39-.969-3.716-2.766-7.216-5.207-10.208l-.96-1.082-.481-.547-.524-.5-1.054-1c-.36-.324-.754-.61-1.13-.914-.742-.637-1.574-1.14-2.386-1.676-.399-.285-.836-.496-1.266-.726l-.644-.344-.324-.172-.243-.129-.062-.03c.101-.243-.25.523.219-.548"/></g><g clip-path="url(#b)"><path fill="#057a7a" d="M74.934 113.84c-1.95 1.113-3.653 2.2-5.157 3.367-1.5 1.18-2.8 2.387-3.906 3.664-2.215 2.527-3.742 5.168-4.73 7.785-.125.32-.254.64-.348.973-.11.324-.211.644-.29.976-.034.168-.093.32-.14.477l-.12.48c-.09.317-.153.637-.212.958-.203 1.28-.406 2.503-.394 3.722-.012 1.215.004 2.399.226 3.567.086.586.184 1.168.328 1.742.043.297.149.582.211.87l.055.22.094.34.199.722c.508 1.926 1 3.863 1.43 5.813l.61 2.933.155.75.188 1.012c.133.672.215 1.355.312 2.027.082.68.102 1.367.145 2.047.023.684.105 1.36.066 2.043-.031 1.36-.097 2.719-.332 4.05-.304 2.685-1.152 5.263-2.125 7.704-2.113 4.84-5.445 8.988-9.484 11.844-2.086 1.367-4.207 2.543-6.52 3.203-2.246.746-4.613 1.02-6.898.898l-.266-.015a.554.554 0 0 1-.21-1.051 27.22 27.22 0 0 0 9.093-7.137 26.974 26.974 0 0 0 5.207-10.203c.899-3.726 1.11-7.629.399-11.394l-.317-1.399-.16-.7-.195-.718-.793-2.887-1.59-5.77a40.447 40.447 0 0 1-.711-2.991 27.533 27.533 0 0 1-.402-3.098 26.395 26.395 0 0 1 .304-6.23c.703-4.106 2.364-8.051 4.88-11.356 2.491-3.316 5.757-6.043 9.464-7.86a26.244 26.244 0 0 1 11.934-2.55.547.547 0 0 1 .261 1.023l-.261.149"/></g><g clip-path="url(#c)"><path fill="#057a7a" d="M336.848 187.508c-.485 1.066-.149.297-.266.535h-.078l-.11.004-.214.008-.434.015-.863-.011c-.586-.012-1.176-.04-1.742-.133-.57-.086-1.145-.196-1.735-.301-.601-.09-1.129-.305-1.703-.469-2.316-.66-4.441-1.832-6.527-3.199-4.051-2.855-7.387-7.012-9.492-11.855-.985-2.442-1.825-5.024-2.13-7.707-.241-1.336-.292-2.692-.324-4.055-.039-.684.04-1.36.063-2.043.047-.68.066-1.371.144-2.05.09-.677.192-1.356.32-2.028l.188-1.012.157-.746.609-2.938.691-2.914.754-2.894.203-.719.094-.34.055-.219c.062-.289.164-.578.215-.87.148-.575.234-1.16.336-1.743a15.62 15.62 0 0 0 .203-1.77c.031-.593.015-1.187.031-1.8 0-1.223-.184-2.45-.395-3.734a9.911 9.911 0 0 0-.21-.954l-.122-.48a6.218 6.218 0 0 1-.14-.48 8.786 8.786 0 0 0-.29-.981c-.093-.332-.222-.648-.35-.973-.985-2.62-2.52-5.265-4.743-7.793-1.106-1.273-2.41-2.476-3.91-3.652-1.504-1.164-3.211-2.246-5.16-3.355l-.258-.145a.545.545 0 0 1 .258-1.023 26.217 26.217 0 0 1 11.93 2.55c3.71 1.817 6.972 4.543 9.464 7.86 2.516 3.304 4.18 7.246 4.88 11.351a26.11 26.11 0 0 1 .304 6.23 26.653 26.653 0 0 1-.399 3.098 41.506 41.506 0 0 1-.71 2.993l-1.59 5.773-.793 2.883-.196.723-.16.699-.316 1.398c-.711 3.766-.5 7.664.398 11.39.969 3.716 2.766 7.216 5.207 10.208l.961 1.082.48.547.524.5 1.055 1c.36.324.754.61 1.129.914.742.637 1.574 1.14 2.386 1.676.399.285.836.496 1.266.726l.644.344.325.172.242.129.062.03c-.101.243.25-.523-.218.548"/></g><g clip-path="url(#d)"><path fill="#057a7a" d="M299.973 261.16c1.949-1.113 3.652-2.2 5.156-3.367 1.5-1.18 2.8-2.387 3.902-3.664 2.219-2.527 3.746-5.168 4.73-7.785.13-.32.259-.64.352-.973.11-.324.211-.644.285-.976.04-.168.098-.32.145-.477l.121-.48c.09-.317.152-.637.211-.958.203-1.28.402-2.503.395-3.722.011-1.215-.008-2.399-.227-3.567a18.748 18.748 0 0 0-.328-1.742c-.043-.297-.149-.582-.211-.87l-.055-.22-.094-.34-.199-.722c-.508-1.926-1-3.863-1.43-5.813l-.609-2.933-.156-.75-.188-1.012c-.132-.672-.214-1.355-.312-2.027-.082-.68-.102-1.367-.145-2.047-.023-.684-.105-1.36-.066-2.043.031-1.36.098-2.719.332-4.05.3-2.685 1.152-5.263 2.125-7.704 2.11-4.84 5.445-8.988 9.484-11.848 2.086-1.363 4.207-2.539 6.52-3.199 2.242-.746 4.613-1.02 6.898-.898l.266.015a.554.554 0 0 1 .21 1.051 27.22 27.22 0 0 0-9.093 7.137c-2.441 2.988-4.242 6.492-5.207 10.203-.898 3.726-1.11 7.629-.398 11.394l.316 1.399.16.7.196.718.793 2.887 1.59 5.77c.253.944.515 1.972.71 2.991.196 1.024.325 2.059.403 3.098a26.4 26.4 0 0 1-.305 6.23c-.703 4.106-2.367 8.051-4.879 11.356-2.492 3.316-5.758 6.043-9.465 7.86a26.244 26.244 0 0 1-11.933 2.55.547.547 0 0 1-.262-1.023l.262-.149"/></g><path d="M97.314 152.91V139.8h-5.282v-2.297h13.094v2.297h-5.437v13.11Zm24.99-11.547v11.547h-2.281v-1.938c-.281.356-.668.7-1.156 1.031a7.402 7.402 0 0 1-1.703.813 6.788 6.788 0 0 1-2.079.312c-1.242 0-2.328-.253-3.265-.765a5.69 5.69 0 0 1-2.219-2.125c-.531-.914-.797-1.953-.797-3.11 0-1.175.274-2.21.828-3.109a5.877 5.877 0 0 1 2.297-2.125c.977-.52 2.102-.781 3.375-.781 1.063 0 2.004.187 2.828.562.82.375 1.453.813 1.891 1.313v-1.625Zm-6.687 9.672c.894 0 1.68-.172 2.36-.516.675-.344 1.194-.805 1.562-1.39.375-.583.562-1.25.562-2s-.187-1.415-.562-2c-.368-.594-.887-1.055-1.563-1.391-.68-.344-1.465-.516-2.36-.516-.874 0-1.652.172-2.327.516-.68.336-1.211.797-1.594 1.39-.387.586-.578 1.25-.578 2s.191 1.418.578 2c.383.586.914 1.047 1.594 1.391.675.344 1.453.516 2.328.516Zm21.919-7.032a3.969 3.969 0 0 0-.984-.343 4.518 4.518 0 0 0-1.094-.14c-.73 0-1.383.163-1.953.483a3.73 3.73 0 0 0-1.36 1.282 3.09 3.09 0 0 0-.484 1.656v5.969h-2.297v-11.547h2.297v2.422a5.4 5.4 0 0 1 1.813-1.922c.77-.5 1.57-.75 2.406-.75.426 0 .844.047 1.25.14.414.086.75.211 1 .375Zm7.86 13.969 2.406-4.484-6.344-12.125h2.672l3.469 7.11c.289.542.55 1.07.781 1.577.238.512.437.977.594 1.391.164-.426.36-.89.578-1.39.226-.508.476-1.063.75-1.657l3.219-7.031h2.64l-5.812 11.531-2.532 5.078Zm22.789-16.859c1.144 0 2.082.226 2.812.672.738.437 1.281 1.027 1.625 1.765.344.743.516 1.559.516 2.453v6.907h-2.266v-6.594c0-.914-.305-1.664-.906-2.25-.594-.582-1.39-.867-2.39-.86-.75 0-1.419.172-2 .516-.587.336-1.044.758-1.376 1.266-.336.5-.5 1-.5 1.5v6.422h-2.265v-11.547h2.265v2.015c.489-.593 1.114-1.117 1.875-1.578.758-.457 1.63-.687 2.61-.687Zm23.295-3.61 6.03 8.22 6.079-8.22h2.281v15.407h-2.375v-6.453c0-.946.016-1.844.047-2.688.04-.851.11-1.703.203-2.547l-5.531 7.266h-1.453l-5.469-7.266c.082.856.14 1.703.172 2.547.04.844.063 1.742.063 2.688v6.453h-2.375v-15.407Zm33.216 3.86v11.547h-2.281v-1.938c-.282.356-.668.7-1.157 1.031a7.402 7.402 0 0 1-1.703.813 6.788 6.788 0 0 1-2.078.312c-1.242 0-2.328-.253-3.265-.765a5.69 5.69 0 0 1-2.22-2.125c-.53-.914-.796-1.953-.796-3.11 0-1.175.273-2.21.828-3.109a5.877 5.877 0 0 1 2.297-2.125c.977-.52 2.102-.781 3.375-.781 1.062 0 2.004.187 2.828.562.82.375 1.453.813 1.89 1.313v-1.625Zm-6.688 9.672c.895 0 1.68-.172 2.36-.516.676-.344 1.195-.805 1.562-1.39.375-.583.563-1.25.563-2s-.188-1.415-.563-2c-.367-.594-.886-1.055-1.562-1.391-.68-.344-1.465-.516-2.36-.516-.875 0-1.652.172-2.328.516-.68.336-1.21.797-1.593 1.39-.387.586-.579 1.25-.579 2s.192 1.418.579 2c.382.586.914 1.047 1.593 1.391.676.344 1.453.516 2.328.516Zm21.92-7.032a3.969 3.969 0 0 0-.984-.343 4.518 4.518 0 0 0-1.094-.14c-.73 0-1.383.163-1.953.483a3.73 3.73 0 0 0-1.36 1.282 3.09 3.09 0 0 0-.484 1.656v5.969h-2.297v-11.547h2.297v2.422a5.4 5.4 0 0 1 1.812-1.922c.77-.5 1.57-.75 2.407-.75.426 0 .843.047 1.25.14.414.086.75.211 1 .375Zm9.828 8.907h-2.266v-9.344h-3.234v-2.203h3.234v-3.375h2.266v3.375h3.828v2.203h-3.828Zm11.016-14.063c-.524 0-.907-.129-1.157-.39-.242-.27-.36-.618-.36-1.047 0-.364.118-.692.36-.985.25-.289.633-.437 1.157-.437.52 0 .906.137 1.156.406.25.262.375.602.375 1.016 0 .375-.125.71-.375 1-.25.293-.637.437-1.156.437Zm1.14 14.063h-2.265v-11.547h2.265Zm14.141-11.797c1.145 0 2.082.226 2.813.672.738.437 1.281 1.027 1.625 1.765.344.743.516 1.559.516 2.453v6.907h-2.266v-6.594c0-.914-.305-1.664-.906-2.25-.594-.582-1.391-.867-2.391-.86-.75 0-1.418.172-2 .516-.586.336-1.043.758-1.375 1.266-.336.5-.5 1-.5 1.5v6.422h-2.266v-11.547h2.266v2.015c.488-.593 1.113-1.117 1.875-1.578.758-.457 1.629-.687 2.61-.687Zm-95.509 51.281-5.828 15.406h-1.656l-4.125-9.656-4.141 9.656h-1.734l-5.391-15.406h2.563l3.156 9.265c.144.399.281.809.406 1.235.125.43.238.84.344 1.234.144-.394.297-.805.453-1.234.164-.426.336-.844.516-1.25l2.812-6.578h2.219l2.734 6.547c.176.43.344.851.5 1.265.164.418.313.82.438 1.203.113-.394.238-.804.375-1.234a28.7 28.7 0 0 1 .437-1.313l3.375-9.14Zm16.361 13.89h-.016a8.144 8.144 0 0 1-1.5.844 10.52 10.52 0 0 1-1.968.656c-.711.157-1.438.235-2.188.235-1.43 0-2.683-.25-3.765-.75-1.086-.508-1.934-1.207-2.547-2.094-.606-.883-.907-1.895-.907-3.031 0-1.29.32-2.395.97-3.313.644-.914 1.5-1.617 2.562-2.11 1.062-.487 2.222-.733 3.484-.733 1.176 0 2.25.242 3.219.718.969.469 1.738 1.125 2.312 1.969.57.836.86 1.809.86 2.922l-.032 1.094h-11.062c.187 1 .754 1.793 1.703 2.375.957.574 2.148.859 3.578.859 1.04 0 1.899-.148 2.578-.453.688-.313 1.242-.61 1.672-.89Zm-5.875-8.203c-1.148 0-2.148.215-3 .64-.855.419-1.402 1.142-1.64 2.173h8.718v-.281c-.074-.5-.308-.942-.703-1.329a4.072 4.072 0 0 0-1.484-.89 5.713 5.713 0 0 0-1.891-.313Zm19.25-2.078c1.196 0 2.274.258 3.235.766a5.755 5.755 0 0 1 2.297 2.11c.563.905.844 1.944.844 3.109 0 1.18-.281 2.226-.844 3.14a5.745 5.745 0 0 1-2.297 2.125c-.969.512-2.07.766-3.297.766-.96 0-1.836-.18-2.625-.531-.793-.352-1.422-.75-1.89-1.188v1.438h-2.266v-16.22h2.266v6.313c.437-.468 1.062-.89 1.875-1.265.82-.375 1.722-.563 2.703-.563Zm-.312 2.094c-.875 0-1.656.172-2.343.516-.68.335-1.215.792-1.61 1.375-.386.585-.578 1.25-.578 2s.192 1.421.578 2.015a4.12 4.12 0 0 0 1.61 1.406c.687.344 1.468.516 2.343.516.883 0 1.66-.172 2.328-.516a4.046 4.046 0 0 0 1.594-1.406 3.642 3.642 0 0 0 .578-2.015c0-.75-.195-1.415-.578-2-.386-.583-.918-1.04-1.594-1.375-.667-.344-1.445-.516-2.328-.516ZM99.169 223.144c1.332 0 2.504.203 3.516.61 1.02.405 1.867.964 2.547 1.671a6.951 6.951 0 0 1 1.546 2.469c.352.93.532 1.914.532 2.953 0 1.406-.313 2.695-.938 3.86-.617 1.167-1.527 2.1-2.734 2.796-1.2.7-2.688 1.047-4.469 1.047h-7.156v-15.406Zm-.11 13.125c1.344 0 2.438-.239 3.282-.719.844-.488 1.46-1.145 1.86-1.969.394-.82.593-1.734.593-2.734 0-.969-.2-1.86-.594-2.672-.398-.82-1.015-1.484-1.86-1.984-.843-.5-1.937-.75-3.28-.75h-4.672v10.828Zm25.309.765h-.016a8.144 8.144 0 0 1-1.5.844 10.52 10.52 0 0 1-1.968.656c-.711.157-1.438.235-2.188.235-1.43 0-2.684-.25-3.766-.75-1.086-.508-1.933-1.207-2.546-2.094-.606-.883-.907-1.895-.907-3.031 0-1.29.32-2.395.969-3.313.645-.914 1.5-1.617 2.563-2.11 1.062-.487 2.222-.733 3.484-.733 1.176 0 2.25.242 3.219.718.968.469 1.738 1.125 2.312 1.969.57.836.86 1.809.86 2.922l-.032 1.094H113.79c.187 1 .754 1.793 1.703 2.375.957.574 2.148.859 3.578.859 1.04 0 1.898-.148 2.578-.453.688-.313 1.242-.61 1.672-.89Zm-5.875-8.203c-1.149 0-2.149.215-3 .64-.856.419-1.402 1.142-1.64 2.173h8.718v-.281c-.074-.5-.309-.942-.703-1.329a4.072 4.072 0 0 0-1.484-.89 5.713 5.713 0 0 0-1.891-.313Zm12.688-1.828 4.422 8.922 4.563-8.922h2.468l-6.171 11.547h-1.907l-5.968-11.547Zm27.699 10.031h-.016a8.144 8.144 0 0 1-1.5.844c-.605.274-1.262.492-1.969.656-.71.157-1.437.235-2.187.235-1.43 0-2.684-.25-3.766-.75-1.086-.508-1.933-1.207-2.547-2.094-.605-.883-.906-1.895-.906-3.031 0-1.29.32-2.395.969-3.313.644-.914 1.5-1.617 2.562-2.11 1.063-.487 2.223-.733 3.485-.733 1.176 0 2.25.242 3.219.718.968.469 1.738 1.125 2.312 1.969.57.836.86 1.809.86 2.922l-.032 1.094h-11.062c.187 1 .754 1.793 1.703 2.375.957.574 2.148.859 3.578.859 1.039 0 1.898-.148 2.578-.453.688-.313 1.242-.61 1.672-.89Zm-5.875-8.203c-1.149 0-2.149.215-3 .64-.856.419-1.403 1.142-1.64 2.173h8.718v-.281c-.074-.5-.309-.942-.703-1.329a4.072 4.072 0 0 0-1.485-.89 5.713 5.713 0 0 0-1.89-.313Zm12.251 9.719v-16.281h2.265v16.281Zm22.004-5.781c0 1.168-.304 2.203-.906 3.11-.606.905-1.434 1.616-2.484 2.124-1.055.512-2.258.766-3.61.766-1.367 0-2.578-.254-3.64-.766-1.055-.508-1.883-1.219-2.485-2.125-.594-.906-.89-1.941-.89-3.11 0-1.175.296-2.21.89-3.109.602-.906 1.43-1.613 2.485-2.125 1.062-.52 2.273-.78 3.64-.78 1.352 0 2.555.26 3.61.78 1.05.512 1.878 1.22 2.484 2.125.602.899.906 1.934.906 3.11Zm-2.312 0c.008-.781-.188-1.469-.594-2.063-.406-.593-.969-1.05-1.688-1.375-.718-.332-1.523-.5-2.406-.5-.898 0-1.703.168-2.422.5-.718.324-1.289.782-1.703 1.375-.418.594-.61 1.282-.578 2.063-.031.761.16 1.437.578 2.031.414.594.985 1.063 1.703 1.406.72.336 1.524.5 2.422.5.883 0 1.688-.164 2.406-.5.72-.343 1.282-.812 1.688-1.406.406-.594.602-1.27.594-2.031Zm15.151-5.969c1.257 0 2.363.258 3.312.766a5.505 5.505 0 0 1 2.234 2.093c.54.899.813 1.934.813 3.11 0 1.156-.274 2.187-.813 3.094-.53.898-1.277 1.605-2.234 2.125-.95.511-2.027.765-3.234.765-1.063 0-2.024-.195-2.875-.578-.844-.395-1.485-.828-1.922-1.297v6.516h-2.297v-16.422h2.297v1.812c.25-.343.61-.66 1.078-.953a6.704 6.704 0 0 1 1.656-.734 6.61 6.61 0 0 1 1.985-.297Zm-.297 2.094c-.899 0-1.688.172-2.375.515-.68.336-1.211.793-1.594 1.375-.375.575-.563 1.235-.563 1.985 0 .73.188 1.39.563 1.984.383.586.914 1.047 1.594 1.39.687.345 1.476.516 2.375.516.875 0 1.648-.171 2.328-.515.676-.344 1.203-.805 1.578-1.39a3.585 3.585 0 0 0 .578-1.985c0-.75-.195-1.41-.578-1.985-.375-.582-.902-1.039-1.578-1.375-.68-.343-1.453-.515-2.328-.515Zm19.202-2.094c.989 0 1.844.21 2.563.625.719.418 1.219 1.04 1.5 1.86.289-.352.68-.723 1.172-1.11a7.432 7.432 0 0 1 1.703-.969 5.378 5.378 0 0 1 2.094-.406c1.175 0 2.097.227 2.765.672a3.686 3.686 0 0 1 1.422 1.797c.281.75.422 1.578.422 2.484v6.797h-2.297v-6.516c0-.937-.215-1.691-.64-2.265-.43-.582-1.153-.875-2.172-.875-.782 0-1.485.164-2.11.484a3.949 3.949 0 0 0-1.469 1.297 3.208 3.208 0 0 0-.53 1.797v6.078h-2.298v-6.562c0-.907-.246-1.645-.734-2.22-.48-.581-1.266-.874-2.36-.874-.742 0-1.39.172-1.953.515a3.901 3.901 0 0 0-1.328 1.266c-.324.5-.484 1-.484 1.5v6.375h-2.297v-11.547h2.297v1.86c.469-.52 1.101-.993 1.906-1.422.813-.426 1.754-.641 2.828-.641Zm31.863 10.234h-.015a8.211 8.211 0 0 1-1.5.844c-.606.274-1.262.492-1.969.656-.71.157-1.437.235-2.187.235-1.43 0-2.684-.25-3.766-.75-1.086-.508-1.934-1.207-2.547-2.094-.605-.883-.906-1.895-.906-3.031 0-1.29.32-2.395.969-3.313.644-.914 1.5-1.617 2.562-2.11 1.063-.487 2.223-.733 3.484-.733 1.176 0 2.25.242 3.22.718.968.469 1.737 1.125 2.312 1.969.57.836.859 1.809.859 2.922l-.031 1.094h-11.063c.188 1 .754 1.793 1.703 2.375.957.574 2.149.859 3.579.859 1.039 0 1.898-.148 2.578-.453.687-.313 1.242-.61 1.672-.89Zm-5.875-8.203c-1.148 0-2.148.215-3 .64-.855.419-1.402 1.142-1.64 2.173h8.719v-.281c-.075-.5-.31-.942-.704-1.329a4.072 4.072 0 0 0-1.484-.89 5.713 5.713 0 0 0-1.89-.313Zm19.158-2.078c1.144 0 2.082.227 2.812.672.738.438 1.281 1.027 1.625 1.766.344.742.516 1.558.516 2.453v6.906h-2.266v-6.594c0-.914-.305-1.664-.906-2.25-.594-.582-1.39-.867-2.39-.86-.75 0-1.419.173-2 .517-.587.335-1.044.757-1.376 1.265-.336.5-.5 1-.5 1.5v6.422H257.4v-11.547h2.266v2.016c.488-.594 1.113-1.117 1.875-1.578.758-.457 1.629-.688 2.61-.688Zm16.067 11.797h-2.266v-9.344h-3.234v-2.203h3.234v-3.375h2.266v3.375h3.828v2.203h-3.828Zm0 0" fill="#504e4b"/></svg>